{"title":"Marvel.One-Shot.Item.47.(2012).BRRip.720p.x264.Eng.AAC.AMX","uid":7574792,"size":215976716,"categoryP":"video","categoryS":"hd___movies","magnet":"?xt=urn:btih:ba1026dfc5e1dda5937226203fb2395f1ac8f451&amp;dn=Marvel.One-Shot.Item.47.%282012%29.BRRip.720p.x264.Eng.AAC.AMX&amp;tr=udp%3A%2F%2Ftracker.openbittorrent.com%3A80&amp;tr=udp%3A%2F%2Fopen.demonii.com%3A1337&amp;tr=udp%3A%2F%2Ftracker.coppersurfer.tk%3A6969&amp;tr=udp%3A%2F%2Fexodus.desync.com%3A6969","seeders":0,"leechers":0,"uploader":"Lawry1494","files":-1,"time":1346087064,"description":"General\nComplete name                            : Marvel.One-Shot.Item.47.(2012).BRRip.720p.x264.Eng.AAC.AMX.mp4\nFormat                                   : MPEG-4\nFormat profile                           : Base Media\nCodec ID                                 : isom\nFile size                                : 201 MiB\nDuration                                 : 11mn 20s\nOverall bit rate mode                    : Variable\nOverall bit rate                         : 2 482 Kbps\n\nVideo\nID                                       : 1\nFormat                                   : AVC\nFormat/Info                              : Advanced Video Codec\nFormat profile                           : &lt;a class=&quot;__cf_email__&quot; href=&quot;/cdn-cgi/l/email-protection&quot; data-cfemail=&quot;b5fddcd2ddf5f9819b85&quot;&gt;[email&amp;#160;protected]&lt;/a&gt;&lt;script data-cfhash='f9e31' type=&quot;text/javascript&quot;&gt;\n/* &lt;![CDATA[ */!function(){try{var t=&quot;currentScript&quot;in document?document.currentScript:function(){for(var t=document.getElementsByTagName(&quot;script&quot;),e=t.length;e--;)if(t[e].getAttribute(&quot;data-cfhash&quot;))return t[e]}();if(t&amp;&amp;t.previousSibling){var e,r,n,i,c=t.previousSibling,a=c.getAttribute(&quot;data-cfemail&quot;);if(a){for(e=&quot;&quot;,r=parseInt(a.substr(0,2),16),n=2;a.length-n;n+=2)i=parseInt(a.substr(n,2),16)^r,e+=String.fromCharCode(i);e=document.createTextNode(e),c.parentNode.replaceChild(e,c)}t.parentNode.removeChild(t);}}catch(u){}}()/* ]]&gt; */&lt;/script&gt;\nFormat settings, CABAC                   : Yes\nFormat settings, ReFrames                : 8 frames\nCodec ID                                 : avc1\nCodec ID/Info                            : Advanced Video Coding\nDuration                                 : 11mn 20s\nBit rate                                 : 2 356 Kbps\nMaximum bit rate                         : 17.8 Mbps\nWidth                                    : 1 280 pixels\nHeight                                   : 528 pixels\nDisplay aspect ratio                     : 2.35:1\nFrame rate mode                          : Constant\nFrame rate                               : 23.976 fps\nColor space                              : YUV\nChroma subsampling                       : 4:2:0\nBit depth                                : 8 bits\nScan type                                : Progressive\nBits/(Pixel*Frame)                       : 0.145\nStream size                              : 191 MiB (95%)\n\nAudio\nID                                       : 2\nFormat                                   : AAC\nFormat/Info                              : Advanced Audio Codec\nFormat profile                           : LC\nCodec ID                                 : 40\nDuration                                 : 11mn 20s\nBit rate mode                            : Variable\nBit rate                                 : 122 Kbps\nMaximum bit rate                         : 157 Kbps\nChannel(s)                               : 2 channels\nChannel positions                        : Front: L R\nSampling rate                            : 48.0 KHz\nCompression mode                         : Lossy\nStream size                              : 9.93 MiB (5%)\nLanguage                                 : English\n","torrent":{"xt":"urn:btih:ba1026dfc5e1dda5937226203fb2395f1ac8f451","amp;dn":"Marvel.One-Shot.Item.47.%282012%29.BRRip.720p.x264.Eng.AAC.AMX","amp;tr":["udp%3A%2F%2Ftracker.openbittorrent.com%3A80","udp%3A%2F%2Fopen.demonii.com%3A1337","udp%3A%2F%2Ftracker.coppersurfer.tk%3A6969","udp%3A%2F%2Fexodus.desync.com%3A6969"],"infoHash":"ba1026dfc5e1dda5937226203fb2395f1ac8f451","infoHashBuffer":{"type":"Buffer","data":[186,16,38,223,197,225,221,165,147,114,38,32,63,178,57,95,26,200,244,81]},"announce":[],"urlList":[]}}